<?xml version="1.0" encoding="UTF-8"?>
<svg version="1.1" xmlns="http://www.w3.org/2000/svg" width="1024" height="1024">
<path d="M0 0 C1.48328104 -0.00258664 2.96656139 -0.00560063 4.44984078 -0.0090034 C8.51316872 -0.01704129 12.57647896 -0.01886117 16.6398139 -0.01960087 C21.02713332 -0.02145699 25.41444367 -0.02900702 29.80175781 -0.03573608 C39.38855967 -0.04929614 48.97535732 -0.05534023 58.56216717 -0.05974674 C64.55111212 -0.06251258 70.54005546 -0.0667505 76.52899933 -0.07125092 C93.11984531 -0.08343954 109.71069001 -0.09374031 126.30154037 -0.09712601 C127.36258071 -0.09734557 128.42362105 -0.09756514 129.51681413 -0.09779136 C130.58034509 -0.09800964 131.64387605 -0.09822791 132.73963523 -0.09845281 C134.89464045 -0.09889627 137.04964566 -0.09934283 139.20465088 -0.09979248 C140.27360046 -0.10001391 141.34255004 -0.10023534 142.44389203 -0.10046348 C159.76558699 -0.10441173 177.08723988 -0.12186839 194.40891859 -0.145152 C212.20466676 -0.1688793 230.00039383 -0.18132845 247.79615808 -0.18249393 C257.78311217 -0.1834098 267.77001142 -0.18914031 277.75695038 -0.20731354 C286.26029877 -0.22273298 294.76357536 -0.22782402 303.26693508 -0.21957543 C307.60260193 -0.21567575 311.93812424 -0.21656525 316.27377319 -0.23063278 C320.24887458 -0.24341221 324.22372343 -0.24213898 328.19882467 -0.23004207 C329.63082431 -0.22809207 331.06284208 -0.23113102 332.49481627 -0.23988643 C349.86460131 -0.33929897 364.54466493 3.78739827 377.35601807 15.82769775 C387.46375956 25.84266125 392.65966799 39.11565052 392.8057251 53.18902588 C392.85258817 68.55436736 390.3669949 83.67219152 388.15411043 98.83648562 C387.52359824 103.18374292 386.9116585 107.53361077 386.29873657 111.88337708 C385.51217035 117.46017608 384.72470295 123.03683258 383.93072701 128.61258221 C381.09658474 148.52774501 378.39613528 168.46061464 375.70157623 188.39506149 C374.86403703 194.58977535 374.02338316 200.78406382 373.18188477 206.97824097 C373.0422982 208.00575199 372.90271163 209.033263 372.75889516 210.09191072 C372.47634015 212.17173 372.19377606 214.25154805 371.91120291 216.33136487 C371.20319186 221.54315167 370.49562479 226.75499871 369.78814697 231.96685791 C369.57730441 233.5200882 369.57730441 233.5200882 369.36220241 235.10469687 C368.35164988 242.55017305 367.34219278 249.99579737 366.33306885 257.44146729 C365.04716916 266.92918906 363.75940786 276.4166563 362.46964681 285.90385395 C361.79815353 290.84376937 361.12750855 295.7837959 360.45924759 300.7241497 C358.92476683 312.06507654 357.36976915 323.40288475 355.78602695 334.73703909 C355.45330007 337.12909099 355.12485817 339.52169769 354.79741669 341.9144783 C354.27933626 345.69204017 353.7462436 349.46720383 353.20191455 353.24106991 C352.91681979 355.23889065 352.64509838 357.23860629 352.37409401 359.23838711 C349.01264322 382.11777515 339.04216161 402.15449704 320.77593994 416.75372314 C305.30682 428.19505193 287.5613444 433.29071128 268.48666382 433.28761292 C267.27184417 433.2912896 266.05702451 433.29496629 264.80539215 433.29875439 C261.44075385 433.30785473 258.07616423 433.3124851 254.71151829 433.3151437 C251.0793743 433.31905806 247.44724428 433.32863569 243.81510925 433.33735657 C235.04623188 433.35709065 226.27735341 433.367184 217.50845939 433.37608436 C213.37332352 433.38047288 209.23818892 433.38583828 205.10305405 433.39107323 C191.34658893 433.40808361 177.5901246 433.42257561 163.83365059 433.42982197 C160.26623661 433.43173169 156.69882264 433.43365205 153.13140869 433.43560791 C152.24480485 433.43609165 151.35820101 433.43657539 150.44473039 433.43707379 C136.09695887 433.44536602 121.74927094 433.47069012 107.40153588 433.50318859 C92.65234516 433.53632241 77.90319681 433.55427649 63.15396869 433.55746621 C54.88045686 433.55962562 46.60706688 433.56829047 38.33359146 433.59392738 C31.28431927 433.61572109 24.23519853 433.62364252 17.18589647 433.6139606 C13.59498166 433.60944062 10.00437873 433.611166 6.41350746 433.63072205 C-16.95016118 433.75079102 -38.83863501 432.53664067 -56.54827881 415.14044189 C-56.54827881 414.48044189 -56.54827881 413.82044189 -56.54827881 413.14044189 C-57.20827881 413.14044189 -57.86827881 413.14044189 -58.54827881 413.14044189 C-65.25274053 405.35516014 -70.85598315 395.52487678 -71.54827881 385.14044189 C-66.77792296 383.55032328 -62.49828191 386.08768242 -57.94281006 387.78302002 C-47.35758382 391.5428491 -36.55953273 392.44195367 -25.39355469 392.39440918 C-24.24288002 392.39752916 -23.09220535 392.40064914 -21.90666175 392.40386367 C-18.08955594 392.41177685 -14.27261208 392.40554613 -10.45550537 392.39923096 C-7.70287755 392.40084462 -4.95025639 392.40543478 -2.19763184 392.40985107 C4.48057565 392.41870732 11.15873798 392.41683962 17.83694717 392.41102579 C23.27080066 392.40649288 28.70464156 392.40590342 34.1384964 392.40807343 C34.91447861 392.40837989 35.69046082 392.40868636 36.48995765 392.40900211 C38.06683427 392.40964162 39.6437109 392.41029005 41.22058752 392.41094729 C55.98100821 392.41663995 70.74140399 392.41011024 85.50182059 392.39934656 C98.13454734 392.3904191 110.7672373 392.39195852 123.39996338 392.40118408 C138.10452766 392.41191782 152.80907013 392.4160833 167.51363778 392.40995955 C169.08565282 392.40932253 170.65766787 392.40869379 172.22968292 392.40807343 C173.00293507 392.40776487 173.77618722 392.40745632 174.57287125 392.40713842 C179.99072234 392.40542024 185.40855946 392.4083077 190.82640839 392.41303253 C197.44287332 392.41867629 204.05929087 392.41705249 210.67575046 392.40647104 C214.04398469 392.40125978 217.41207599 392.40017829 220.78031921 392.40576935 C254.29258347 392.63583448 254.29258347 392.63583448 284.45172119 379.14044189 C285.26769775 378.30899658 285.26769775 378.30899658 286.10015869 377.46075439 C287.45172119 376.14044189 287.45172119 376.14044189 289.45172119 376.14044189 C289.7262915 375.55005127 290.00086182 374.95966064 290.28375244 374.35137939 C291.40380287 372.23115016 292.61732955 370.60839013 294.13922119 368.76544189 C305.20445155 354.10198259 308.36253671 336.93813361 310.71343994 319.14825439 C310.90643789 317.73803347 311.10022865 316.32792086 311.29473877 314.91790771 C311.81217262 311.15120603 312.31885127 307.38313194 312.823452 303.61469269 C313.36000481 299.62286212 313.90703334 295.63246662 314.45294189 291.64190674 C315.35382553 285.04709859 316.24892816 278.45153164 317.13922119 271.85528564 C318.37080487 262.73049123 319.61245269 253.60709355 320.85797119 244.48419189 C321.2425241 241.66697613 321.62703956 238.84975526 322.01153564 236.03253174 C322.10527371 235.34580572 322.19901178 234.6590797 322.2955904 233.95154381 C322.94855589 229.16659826 323.59935909 224.38136163 324.24932861 219.5960083 C325.98633845 206.81308645 327.73800959 194.0324539 329.53375244 181.25762939 C329.69800217 180.08898346 329.86225189 178.92033752 330.03147888 177.71627808 C330.79516613 172.28895458 331.56204243 166.86210295 332.33331299 161.43585205 C332.60195851 159.5353 332.87059513 157.63474669 333.13922119 155.73419189 C333.25856522 154.90193085 333.37790924 154.0696698 333.50086975 153.21218872 C334.30152037 147.53405835 334.91909585 141.84977875 335.45172119 136.14044189 C334.54446289 136.17073486 333.63720459 136.20102783 332.70245361 136.23223877 C309.94404003 136.97397334 287.2216324 137.26941967 264.45172119 137.14044189 C261.75145408 154.30726576 259.25661084 171.49111737 256.94781494 188.71466064 C256.62479201 191.11010991 256.30151741 193.50552526 255.97801208 195.90090942 C255.29704538 200.9453703 254.61732651 205.98999694 253.93859863 211.03475952 C252.87860408 218.91087466 251.81411049 226.78637837 250.74810791 234.66168213 C250.65927054 235.3179961 250.57043318 235.97431007 250.47890377 236.65051234 C249.94100035 240.62417472 249.40292811 244.59781424 248.86479282 248.57144523 C248.59621533 250.55477847 248.32769695 252.53811972 248.05919647 254.52146339 C244.98551455 277.22470606 241.90991214 299.92765585 238.77670288 322.62277222 C238.31150003 325.9939272 237.84943167 329.36548825 237.39016724 332.73745728 C236.86072808 336.62393734 236.32530511 340.50954209 235.78484535 344.39450455 C235.59214339 345.78693883 235.40157295 347.17967015 235.21336937 348.57271957 C234.95975996 350.44710395 234.69742779 352.320302 234.43463135 354.19342041 C234.29191803 355.2298317 234.14920471 356.26624298 234.00216675 357.33406067 C233.45314991 360.13315775 232.60031654 362.53586983 231.45172119 365.14044189 C228.84762374 365.30825485 226.24345299 365.47473841 223.63922119 365.64044189 C222.90123291 365.68813721 222.16324463 365.73583252 221.40289307 365.78497314 C218.41347531 365.97434802 215.44797546 366.14044189 212.45172119 366.14044189 C211.29672119 366.32606689 210.14172119 366.51169189 208.95172119 366.70294189 C205.45172119 367.14044189 205.45172119 367.14044189 202.45172119 366.14044189 C201.68859619 366.30544189 200.92547119 366.47044189 200.13922119 366.64044189 C196.97438452 367.22924872 194.59214274 366.7548722 191.45172119 366.14044189 C188.38724262 366.0369626 188.38724262 366.0369626 185.20172119 366.82794189 C180.54954584 367.21562317 178.54619302 366.22945813 174.45172119 364.14044189 C174.33644106 358.41092547 174.73611212 353.00264366 175.56231689 347.33795166 C175.68142142 346.48987348 175.80052595 345.64179529 175.92323971 344.76801777 C176.31952376 341.95520791 176.72355951 339.14356746 177.12750244 336.33184814 C177.41194985 334.32224933 177.69585225 332.31257331 177.97924805 330.30282593 C178.58560732 326.00912548 179.19514943 321.71589407 179.80722046 317.42300415 C181.26153337 307.2200518 182.6981068 297.01459449 184.13618279 286.80934334 C184.62551911 283.33773724 185.11545477 279.86621606 185.60542297 276.3946991 C188.52244947 255.71234868 191.36957796 235.02086039 194.17568588 214.3231926 C194.50703165 211.88093406 194.83917733 209.43878571 195.17160034 206.99667358 C198.38362207 183.39290568 201.45130225 159.77200365 204.45172119 136.14044189 C203.14791504 136.30270264 201.84410889 136.46496338 200.50079346 136.63214111 C195.87244728 137.14418751 191.31949031 137.28552262 186.66656494 137.27325439 C185.85526627 137.27457367 185.04396759 137.27589294 184.20808411 137.2772522 C181.60175611 137.27914957 178.99553803 137.27287481 176.38922119 137.26544189 C175.50331299 137.26455566 174.61740479 137.26366943 173.70465088 137.26275635 C159.59822535 137.24616356 145.5379399 136.94209662 131.45172119 136.14044189 C130.29124046 130.26040744 130.71120056 125.20269142 131.56109619 119.29669189 C131.68857239 118.36876831 131.81604858 117.44084473 131.9473877 116.48480225 C132.21847281 114.53096832 132.49442269 112.57780385 132.77496338 110.62530518 C133.20010837 107.65172244 133.60426206 104.67580561 134.00640869 101.69903564 C134.2733793 99.79391094 134.54156808 97.88895646 134.81109619 95.98419189 C134.92999207 95.10170776 135.04888794 94.21922363 135.17138672 93.30999756 C135.35607513 92.0533429 135.35607513 92.0533429 135.54449463 90.77130127 C135.64743835 90.0440686 135.75038208 89.31683594 135.85644531 88.56756592 C136.65754713 85.30122582 138.12691362 82.23165956 139.45172119 79.14044189 C207.10172119 78.81044189 274.75172119 78.48044189 344.45172119 78.14044189 C345.97510254 66.43141685 345.97510254 66.43141685 341.45172119 57.14044189 C337.30745202 52.60764748 332.4031963 51.67114988 326.45172119 51.14044189 C322.15662571 50.99483002 317.86399682 51.00124749 313.5667572 51.00672913 C312.26517868 51.00446357 310.96360016 51.00219801 309.62257987 50.9998638 C306.02059302 50.99376102 302.41862943 50.9938776 298.81663859 50.99505818 C294.92764151 50.99526257 291.03865182 50.98973978 287.1496582 50.98500061 C279.53451532 50.97670193 271.91938018 50.97394613 264.30423316 50.97338823 C258.11312283 50.97291272 251.92201505 50.97085619 245.73090553 50.96768761 C228.17024635 50.9588833 210.60959327 50.9542679 193.04893186 50.95501808 C191.62953206 50.95507802 191.62953206 50.95507802 190.18145752 50.95513916 C188.76032077 50.95520048 188.76032077 50.95520048 187.31047419 50.95526304 C171.95643074 50.95566949 156.6024118 50.94609976 141.24837544 50.93200079 C125.47539071 50.91763163 109.70241793 50.9107309 93.92942649 50.91159457 C85.07712856 50.91192634 76.22485634 50.90918779 67.37256432 50.89841652 C59.83569119 50.88930444 52.29885544 50.8871421 44.76197919 50.89392594 C40.91873481 50.89718752 37.07556212 50.89726093 33.2323246 50.88857269 C29.06070771 50.87923931 24.88925629 50.88549314 20.71763611 50.89320374 C18.90667223 50.88548839 18.90667223 50.88548839 17.05912322 50.87761718 C4.49781201 50.92888366 -8.25699263 52.84915572 -17.54827881 62.14044189 C-26.37632913 72.90340736 -29.0661891 84.16866554 -30.82171631 97.75372314 C-31.0252388 99.25624664 -31.22982107 100.75862688 -31.43533325 102.26087952 C-31.89563499 105.64604397 -32.34735906 109.03222226 -32.79327393 112.41931152 C-33.61737214 118.67879736 -34.46064881 124.93565881 -35.30316162 131.19268799 C-37.10974962 144.63523177 -38.89156452 158.08101209 -40.67016602 171.52728271 C-41.34333128 176.6125673 -42.01848582 181.69758694 -42.69367409 186.78260326 C-43.35505419 191.76486138 -44.01548228 196.74724533 -44.67560959 201.72966957 C-44.98551386 204.0683304 -45.29562707 206.40696356 -45.6059761 208.74556541 C-46.04159009 212.02965934 -46.47593229 215.31391953 -46.91009521 218.59820557 C-47.04810358 219.63622912 -47.18611195 220.67425268 -47.32830238 221.7437315 C-48.04245703 227.15081851 -48.72243761 232.55986944 -49.3560791 237.97702026 C-49.48733877 239.08296948 -49.61859844 240.1889187 -49.75383568 241.32838154 C-50.00249811 243.43769842 -50.24453014 245.54781092 -50.47890663 247.65876293 C-50.6458632 249.06796237 -50.6458632 249.06796237 -50.81619263 250.50563049 C-50.9097724 251.33097447 -51.00335217 252.15631845 -51.09976768 253.00667286 C-51.54827881 255.14044189 -51.54827881 255.14044189 -53.54827881 258.14044189 C-55.44573975 258.50793457 -55.44573975 258.50793457 -57.78265381 258.49688721 C-58.65696045 258.49988831 -59.53126709 258.5028894 -60.43206787 258.50598145 C-61.85084229 258.48746124 -61.85084229 258.48746124 -63.29827881 258.46856689 C-64.26733154 258.46669373 -65.23638428 258.46482056 -66.23480225 258.46289062 C-68.28594395 258.45616083 -70.33707262 258.44222806 -72.38812256 258.42169189 C-75.53537868 258.39056946 -78.68213416 258.38072565 -81.82952881 258.37481689 C-83.81911827 258.36564588 -85.80870263 258.3552698 -87.79827881 258.34356689 C-88.74412842 258.33931702 -89.68997803 258.33506714 -90.66448975 258.33068848 C-91.97594971 258.31627716 -91.97594971 258.31627716 -93.31390381 258.30157471 C-94.08508545 258.2947467 -94.85626709 258.2879187 -95.65081787 258.28088379 C-97.54827881 258.14044189 -97.54827881 258.14044189 -99.54827881 257.14044189 C-98.1554988 239.73324731 -95.77815459 222.47719799 -93.38104248 205.18728638 C-92.14721929 196.28775502 -90.92887708 187.3861005 -89.71234131 178.48419189 C-89.58498344 177.55305006 -89.45762558 176.62190823 -89.32640839 175.66254997 C-87.24407958 160.42326688 -85.23362879 145.17530837 -83.25921631 129.92169189 C-83.12418827 128.87956606 -82.98916023 127.83744022 -82.85004044 126.76373482 C-81.52516565 116.53680518 -80.20501567 106.30929084 -78.89646339 96.08025932 C-78.40893296 92.27612153 -77.91777481 88.47245752 -77.42586136 84.66888428 C-77.19983539 82.91423224 -76.97545282 81.15936751 -76.75294113 79.40426636 C-73.56676883 54.27842878 -69.94438856 31.50765158 -48.71234131 14.92559814 C-41.04674082 9.34808496 -33.37187668 5.58619839 -24.54827881 2.14044189 C-23.88827881 1.81044189 -23.22827881 1.48044189 -22.54827881 1.14044189 C-15.06599122 -0.14794575 -7.57164115 -0.00529332 0 0 Z " fill="#00B1FE" transform="translate(393.54827880859375,190.85955810546875)"/>
<path d="M0 0 C1.05441788 -0.00292557 2.10883575 -0.00585114 3.19520569 -0.00886536 C4.33275803 0.00864273 5.47031036 0.02615082 6.64233398 0.04418945 C7.80973618 0.04747757 8.97713837 0.05076569 10.17991638 0.05415344 C12.64880949 0.06458281 15.11767786 0.08454688 17.58642578 0.11328125 C21.37668228 0.15733419 25.16630639 0.17471087 28.95678711 0.18676758 C31.35197859 0.20019193 33.74716223 0.21511498 36.14233398 0.23168945 C37.85169884 0.24276985 37.85169884 0.24276985 39.59559631 0.2540741 C40.64686203 0.26690933 41.69812775 0.27974457 42.78125 0.29296875 C44.1733242 0.30773506 44.1733242 0.30773506 45.59352112 0.32279968 C47.82592773 0.4699707 47.82592773 0.4699707 49.82592773 1.4699707 C51.50826344 6.25325633 50.43034432 11.05207376 49.73706055 15.94165039 C49.60835414 16.8964863 49.47964773 17.85132221 49.34704113 18.83509254 C48.9154952 22.02179026 48.47224376 25.20674833 48.02905273 28.3918457 C47.72046716 30.65384146 47.4126267 32.91593897 47.10548401 35.1781311 C46.27700845 41.26488082 45.43851583 47.35021111 44.59790421 53.4352951 C43.72820012 59.7412265 42.866564 66.04825941 42.00439453 72.35522461 C40.95840616 80.00361268 39.91157853 87.65188121 38.86064148 95.29959106 C36.84330358 109.98533433 34.85234346 124.67419433 32.90133286 139.36889648 C32.16149116 144.93725572 31.41731437 150.50503777 30.67362022 156.07288361 C30.10299976 160.3484056 29.53518581 164.62426189 28.97375488 168.90100098 C28.45265937 172.86953286 27.92353565 176.8369161 27.38856316 180.80360031 C27.19913579 182.21882935 27.01254232 183.63444189 26.82937813 185.05049515 C22.74221343 216.6077449 12.60092402 247.14518406 -13.23657227 267.5949707 C-38.57031061 286.88666133 -71.98262661 291.14939694 -102.92407227 287.8449707 C-122.68779471 284.74049218 -142.8497286 276.08163933 -155.01123047 259.63671875 C-162.14154218 249.4165554 -165.89326549 238.39574468 -167.48657227 226.0949707 C-167.59807617 225.39114258 -167.70958008 224.68731445 -167.82446289 223.9621582 C-168.65116311 217.53617635 -167.45204743 215.3038962 -165.17407227 208.4699707 C-147.68407227 208.4699707 -130.19407227 208.4699707 -112.17407227 208.4699707 C-111.18407227 211.4399707 -110.19407227 214.4099707 -109.17407227 217.4699707 C-105.94411608 224.10700971 -102.01879182 228.56209969 -94.98657227 231.1574707 C-82.67403017 234.83708098 -69.70205792 234.1857545 -58.17407227 228.2824707 C-44.88538765 220.37757386 -38.05475954 208.26038258 -34.17407227 193.4699707 C-33.44431528 189.96745501 -32.85985997 186.44717522 -32.29125977 182.9152832 C-32.12233215 181.88242187 -31.95340454 180.84956055 -31.77935791 179.78540039 C-29.67999015 166.71536898 -27.92840329 153.59672971 -26.19091797 140.47460938 C-25.83045242 137.76666554 -25.46314374 135.05966526 -25.096035 132.35261536 C-24.6535955 129.07988472 -24.21893031 125.80613425 -23.78344727 122.5324707 C-23.62100525 121.33662354 -23.45856323 120.14077637 -23.29119873 118.90869141 C-22.52165523 113.03906703 -21.98703146 107.38990304 -22.17407227 101.4699707 C-21.51407227 101.4699707 -20.85407227 101.4699707 -20.17407227 101.4699707 C-20.12971039 100.68421661 -20.08534851 99.89846252 -20.03964233 99.08889771 C-19.38154935 88.6911775 -18.12696483 78.41371645 -16.77563477 68.0871582 C-16.53762155 66.25587041 -16.29961509 64.42458174 -16.06161499 62.59329224 C-15.56548989 58.78581172 -15.06561753 54.97884283 -14.5637207 51.17211914 C-13.92163984 46.29572548 -13.29479385 41.4174969 -12.67131996 36.53869438 C-12.18702006 32.76985025 -11.69190027 29.00248534 -11.19376755 25.23544693 C-10.95772667 23.43624006 -10.72571747 21.63649943 -10.49785233 19.83623886 C-10.17950642 17.32951462 -9.84594494 14.82526551 -9.50854492 12.32104492 C-9.41804367 11.58130936 -9.32754242 10.84157379 -9.23429871 10.079422 C-8.3153923 3.48305094 -7.05643806 -0.04456585 0 0 Z " fill="#009CFE" transform="translate(456.174072265625,269.530029296875)"/>
<path d="M0 0 C1.31592133 -0.00960754 2.63184265 -0.01921509 3.98764038 -0.02911377 C5.42486394 -0.03396581 6.86208954 -0.03824364 8.29931641 -0.04199219 C9.39292418 -0.04623325 9.39292418 -0.04623325 10.50862503 -0.05056 C14.37619639 -0.06554572 18.2437306 -0.0747757 22.11132812 -0.07910156 C26.06936904 -0.08454758 30.02705918 -0.10849421 33.98499107 -0.13707352 C37.05832839 -0.15589613 40.13158509 -0.16091605 43.20497513 -0.16243744 C44.6615348 -0.16542673 46.11809436 -0.17332586 47.57459641 -0.18662262 C72.74692515 -0.39979205 72.74692515 -0.39979205 81.97509766 7.54394531 C87.90165853 13.72428839 88.87642011 19.46849031 88.81103516 27.85644531 C88.25222262 34.33254673 85.4427689 38.94665568 80.52587891 43.16113281 C81.43337891 43.71800781 82.34087891 44.27488281 83.27587891 44.84863281 C88.33303368 48.44699294 90.97754174 51.73057392 92.27197266 57.92285156 C93.09408638 65.17010025 91.90187426 72.22866098 87.52587891 78.16113281 C81.16132573 84.92442908 72.49141709 86.99943309 63.44299316 87.41879272 C58.72537579 87.54348761 54.00997768 87.49944802 49.29150391 87.45410156 C47.55987926 87.4484937 45.8282498 87.44422924 44.09661865 87.4412384 C39.5789636 87.42988319 35.06160627 87.40049841 30.54406738 87.36712646 C25.91825384 87.33622243 21.29239133 87.32268998 16.66650391 87.30761719 C7.6194994 87.27561803 -1.42728592 87.22453715 -10.47412109 87.16113281 C-12.00423786 84.10089928 -11.61263119 80.90332513 -11.60351562 77.54614258 C-11.60526794 76.76063019 -11.60702026 75.9751178 -11.60882568 75.165802 C-11.61323771 72.56135874 -11.6103082 69.95698305 -11.60693359 67.35253906 C-11.60760689 65.54654426 -11.60857713 63.74054955 -11.60983276 61.93455505 C-11.61130891 58.14573302 -11.60915808 54.35693453 -11.60449219 50.56811523 C-11.59879902 45.70778049 -11.60207182 40.84750102 -11.60806465 35.98716831 C-11.61167597 32.25631798 -11.61052897 28.52548078 -11.60793686 24.79463005 C-11.60726896 23.0024407 -11.60809124 21.21025017 -11.61041641 19.41806221 C-11.61295181 16.9138485 -11.60908957 14.40972459 -11.60351562 11.90551758 C-11.60553986 11.16203568 -11.60756409 10.41855377 -11.60964966 9.65254211 C-11.5968224 6.54660581 -11.4642739 4.13159123 -10.47412109 1.16113281 C-7.13000985 -0.2053206 -3.56582939 0.0210454 0 0 Z M12.52587891 20.16113281 C12.52587891 24.78113281 12.52587891 29.40113281 12.52587891 34.16113281 C19.59169204 34.23518998 26.65728016 34.28969128 33.72338867 34.32592773 C36.12805109 34.34103097 38.53268589 34.3615149 40.93725586 34.38745117 C44.39004321 34.42376632 47.84246694 34.44084382 51.29541016 34.45410156 C52.91271782 34.47732735 52.91271782 34.47732735 54.56269836 34.50102234 C56.06391487 34.50136223 56.06391487 34.50136223 57.59545898 34.50170898 C58.91783318 34.51170174 58.91783318 34.51170174 60.266922 34.52189636 C62.9990121 34.08557174 63.86730095 33.33401522 65.52587891 31.16113281 C66.0704382 29.22167839 66.0704382 29.22167839 66.02587891 27.16113281 C66.05681641 26.48050781 66.08775391 25.79988281 66.11962891 25.09863281 C65.66161812 22.99216919 65.66161812 22.99216919 63.67553711 21.55834961 C58.99064768 19.48009039 54.6047891 19.7915534 49.53759766 19.86816406 C48.47926224 19.87240891 47.42092682 19.87665375 46.33052063 19.88102722 C42.95787879 19.89778919 39.58583946 19.9354377 36.21337891 19.97363281 C33.92367401 19.98868282 31.63395972 20.00237067 29.34423828 20.01464844 C23.73788715 20.04768474 18.13198511 20.09945078 12.52587891 20.16113281 Z M12.52587891 52.16113281 C12.52587891 57.11113281 12.52587891 62.06113281 12.52587891 67.16113281 C19.71581009 67.21054553 26.90564257 67.24685865 34.09570312 67.27099609 C36.5420097 67.28105786 38.98830424 67.29470862 41.43457031 67.31201172 C44.94941172 67.336252 48.4640942 67.3476142 51.97900391 67.35644531 C53.07392151 67.36676788 54.16883911 67.37709045 55.29693604 67.38772583 C56.82807037 67.38795242 56.82807037 67.38795242 58.39013672 67.38818359 C59.73582733 67.39484543 59.73582733 67.39484543 61.10870361 67.40164185 C63.71938041 67.14187941 65.3219107 66.56691276 67.52587891 65.16113281 C69.05079888 62.11129286 68.76150439 59.51879591 68.52587891 56.16113281 C67.09547422 54.01552579 66.16781237 53.36200777 63.72601318 52.59791565 C61.28669618 52.11364893 59.06080941 52.04119742 56.57373047 52.04760742 C55.59301575 52.04768295 54.61230103 52.04775848 53.60186768 52.0478363 C52.55069763 52.05299759 51.49952759 52.05815887 50.41650391 52.06347656 C49.3345575 52.06489151 48.25261108 52.06630646 47.13787842 52.06776428 C43.6838504 52.07335963 40.22988732 52.08591131 36.77587891 52.09863281 C34.43343193 52.10364841 32.09098393 52.10821121 29.74853516 52.11230469 C24.00762474 52.12332754 18.26676283 52.14058902 12.52587891 52.16113281 Z " fill="#0180FE" transform="translate(587.47412109375,658.8388671875)"/>
<path d="M0 0 C3.22480015 0.05568459 6.44917262 0.08396696 9.67431641 0.11206055 C11.75637696 0.14748757 13.83841064 0.18453961 15.92041016 0.22338867 C17.34261368 0.22993721 17.34261368 0.22993721 18.79354858 0.23661804 C27.55497039 0.4578847 35.84185819 2.89227842 42.29931641 9.07495117 C49.59285278 17.59335625 49.88228774 27.12673925 49.83447266 37.86791992 C49.8317334 38.94041992 49.82899414 40.01291992 49.82617188 41.11791992 C49.79882651 44.6817667 49.7306815 48.24247146 49.64697266 51.80541992 C49.62062744 53.51072876 49.62062744 53.51072876 49.59375 55.25048828 C49.30637915 63.59586 48.04700377 70.81602448 42.75634766 77.48901367 C28.85173991 89.11786727 12.01594331 87.05459179 -5.25024414 87.05322266 C-8.35690755 87.05542267 -11.46322266 87.07367767 -14.56982422 87.0925293 C-16.57438032 87.09546191 -18.57893807 87.09744759 -20.58349609 87.09838867 C-21.95419502 87.10916695 -21.95419502 87.10916695 -23.35258484 87.12016296 C-32.98811666 87.08640797 -43.46815038 86.06144722 -50.88818359 79.29760742 C-57.87069571 71.64600938 -59.31713064 63.22741943 -59.33349609 53.16088867 C-59.33682449 52.43605789 -59.34015289 51.71122711 -59.34358215 50.96443176 C-59.34862134 49.43739451 -59.35099141 47.91034634 -59.35083008 46.38330078 C-59.35301108 44.07264631 -59.3711835 41.76247419 -59.39013672 39.4519043 C-59.43636444 27.77451343 -58.96670087 17.26116968 -51.16552734 7.86791992 C-37.00154288 -3.16837081 -16.96829043 -0.31865945 0 0 Z M-33.97802734 24.30541992 C-37.58608008 29.05285773 -36.38978136 35.94928839 -36.40576172 41.63696289 C-36.4154613 43.72867698 -36.44649497 45.81940529 -36.47802734 47.91088867 C-36.48455874 49.24812245 -36.48980868 50.58536322 -36.49365234 51.92260742 C-36.50299805 53.13416504 -36.51234375 54.34572266 -36.52197266 55.59399414 C-36.13098204 59.18521621 -35.33854668 61.01193347 -33.16552734 63.86791992 C-27.58181613 67.59039406 -20.34067056 67.02577986 -13.79052734 67.03588867 C-13.0217627 67.03921707 -12.25299805 67.04254547 -11.4609375 67.04597473 C-9.84749951 67.05100137 -8.23405128 67.05338439 -6.62060547 67.05322266 C-4.17186219 67.05541425 -1.72356654 67.07362922 0.72509766 67.0925293 C2.30322114 67.09546324 3.88134673 67.09744803 5.45947266 67.09838867 C6.54107666 67.10916695 6.54107666 67.10916695 7.64453125 67.12016296 C13.51911741 67.09413189 19.53508297 66.69563993 24.27197266 62.93041992 C28.06767455 57.92009343 27.09387244 51.58321279 27.12963867 45.58105469 C27.14682283 43.572928 27.1907269 41.56508818 27.23486328 39.55737305 C27.24743164 37.64408203 27.24743164 37.64408203 27.26025391 35.69213867 C27.27483643 34.5277124 27.28941895 33.36328613 27.30444336 32.16357422 C26.71903314 28.05840407 25.5506426 25.98901633 22.83447266 22.86791992 C17.83590561 20.29463837 12.55144296 20.5773064 7.05322266 20.60229492 C6.12151245 20.60038147 5.18980225 20.59846802 4.2298584 20.59649658 C2.26651742 20.59513995 0.30316732 20.59879986 -1.66015625 20.60717773 C-4.65564227 20.61788459 -7.6505286 20.60726466 -10.64599609 20.59448242 C-12.55875783 20.59580411 -14.47151919 20.59836669 -16.38427734 20.60229492 C-17.27505981 20.59824646 -18.16584229 20.594198 -19.08361816 20.59002686 C-24.50123655 20.63063499 -29.55004195 20.79356943 -33.97802734 24.30541992 Z " fill="#017FFE" transform="translate(509.16552734375,659.132080078125)"/>
<path d="M0 0 C0.98627632 0.00477356 0.98627632 0.00477356 1.99247742 0.00964355 C4.16288485 0.02221119 6.33309265 0.04310355 8.50341797 0.06567383 C9.62106348 0.07610938 9.62106348 0.07610938 10.76128769 0.08675575 C14.70862274 0.12412641 18.65582251 0.16810476 22.60302734 0.21728516 C26.65770403 0.26647446 30.71218494 0.29278429 34.76709175 0.31371593 C37.90393849 0.33420773 41.04040933 0.37212978 44.17702866 0.41457558 C45.67030694 0.43179018 47.16367496 0.44258166 48.65704727 0.44652367 C58.6493058 0.48061356 67.45852677 1.25282787 75.74560547 7.33520508 C81.76094268 13.63698692 83.99520164 21.43019754 84.68310547 29.96020508 C84.46451727 36.91404206 82.30904653 44.0157538 78.03076172 49.55004883 C73.95698482 53.31709429 68.5707442 55.3518255 63.37060547 57.08520508 C68.29523944 63.15284051 73.26399845 69.17916667 78.30810547 75.14770508 C79.01640503 75.98724731 79.01640503 75.98724731 79.73901367 76.84375 C81.56023429 78.99321963 83.37753122 81.09213083 85.37060547 83.08520508 C84.87560547 84.57020508 84.87560547 84.57020508 84.37060547 86.08520508 C60.10260357 87.1595282 60.10260357 87.1595282 54.76904297 82.80395508 C52.70625892 80.25067189 50.96734551 77.73731853 49.39355469 74.8581543 C47.54370937 71.65205007 45.20560096 68.81086823 42.93310547 65.89770508 C42.51867187 65.33341797 42.10423828 64.76913086 41.67724609 64.18774414 C39.63532775 61.44317562 38.6979215 60.19431042 35.37060547 59.08520508 C33.67043703 59.00342393 31.9672425 58.97771007 30.26513672 58.98754883 C29.37930908 58.99004639 28.49348145 58.99254395 27.58081055 58.99511719 C25.89894653 59.00877319 25.89894653 59.00877319 24.18310547 59.02270508 C20.61498047 59.04333008 17.04685547 59.06395508 13.37060547 59.08520508 C13.04060547 67.66520508 12.71060547 76.24520508 12.37060547 85.08520508 C9.9700073 86.28550416 8.47699897 86.19980251 5.80029297 86.18286133 C4.90439453 86.17963867 4.00849609 86.17641602 3.08544922 86.1730957 C1.67972656 86.16052734 1.67972656 86.16052734 0.24560547 86.14770508 C-0.69927734 86.14319336 -1.64416016 86.13868164 -2.61767578 86.1340332 C-4.9549784 86.12222864 -7.29215514 86.10576266 -9.62939453 86.08520508 C-10.85340838 82.41316353 -10.76109814 79.03959992 -10.74291992 75.21728516 C-10.74306595 74.41705429 -10.74321198 73.61682343 -10.74336243 72.79234314 C-10.74266558 70.14644666 -10.73488382 67.50062052 -10.72705078 64.85473633 C-10.72518579 63.02056415 -10.72376227 61.18639148 -10.72276306 59.35221863 C-10.71894426 54.52384059 -10.70911938 49.69549262 -10.69805908 44.86712646 C-10.6878313 39.94047451 -10.68326251 35.01381771 -10.67822266 30.0871582 C-10.66749656 20.41982728 -10.65042775 10.75251868 -10.62939453 1.08520508 C-7.05005612 -0.03143085 -3.73510379 -0.02492943 0 0 Z M12.37060547 20.08520508 C12.37060547 26.68520508 12.37060547 33.28520508 12.37060547 40.08520508 C17.33282323 40.10828516 22.29485122 40.12816107 27.25708008 40.14013672 C28.94165685 40.14513451 30.62622935 40.15193496 32.31079102 40.16064453 C34.74610453 40.1729113 37.18136021 40.17847906 39.61669922 40.18286133 C40.72820595 40.19060326 40.72820595 40.19060326 41.86216736 40.19850159 C51.23257994 40.41143753 51.23257994 40.41143753 59.93310547 37.64770508 C62.22120082 33.56892641 62.08326014 29.64164611 61.37060547 25.08520508 C60.18487522 22.31597823 60.18487522 22.31597823 57.37060547 21.08520508 C48.24108995 19.2815089 38.50657146 19.97312617 29.24560547 20.02270508 C27.60498184 20.0277307 25.96435671 20.03229173 24.32373047 20.03637695 C20.33928774 20.04643868 16.35505596 20.06602858 12.37060547 20.08520508 Z " fill="#027FFE" transform="translate(275.62939453125,769.914794921875)"/>
<path d="M0 0 C16.025625 -0.12375 16.025625 -0.12375 32.375 -0.25 C35.72962402 -0.28641602 39.08424805 -0.32283203 42.54052734 -0.36035156 C45.22232423 -0.37204246 47.90412826 -0.38223333 50.5859375 -0.390625 C51.26967438 -0.40107849 51.95341125 -0.41153198 52.65786743 -0.42230225 C62.827249 -0.56980287 70.70074392 0.50049126 79.3125 6.1875 C87.01744553 14.25081509 88.47968765 22.3788453 88.28515625 33.22265625 C87.90883524 38.20762087 86.6367247 41.79772001 84 46 C83.4225 46.928125 82.845 47.85625 82.25 48.8125 C79.67213032 51.31876219 77.15681189 52.63752247 73.90234375 54.10546875 C71.74771358 55.06136561 71.74771358 55.06136561 69 57 C69.54527344 57.59425781 70.09054687 58.18851563 70.65234375 58.80078125 C85.791077 75.44044873 85.791077 75.44044873 88.06640625 80.2578125 C88.93641776 82.36037557 88.93641776 82.36037557 92 83 C88.29740557 85.36554644 85.06961478 85.23559288 80.75 85.1875 C78.85507812 85.17783203 78.85507812 85.17783203 76.921875 85.16796875 C75.62765625 85.11253906 74.3334375 85.05710937 73 85 C72.00154053 85.02356567 72.00154053 85.02356567 70.98291016 85.04760742 C67.69948536 84.95761256 65.71372189 84.59807251 63.15429688 82.45336914 C61.27046388 80.3572189 59.56371917 78.19355291 57.875 75.9375 C57.29363281 75.19822266 56.71226562 74.45894531 56.11328125 73.69726562 C53.79375251 70.73169365 51.53355383 67.72683256 49.30566406 64.69189453 C48.77424805 63.9698584 48.24283203 63.24782227 47.6953125 62.50390625 C47.22367676 61.85365479 46.75204102 61.20340332 46.26611328 60.53344727 C45.05916242 58.86084094 45.05916242 58.86084094 43 58 C41.47851674 57.91627341 39.95344222 57.89269973 38.4296875 57.90234375 C37.62257324 57.90484131 36.81545898 57.90733887 35.98388672 57.90991211 C34.44498779 57.92356812 34.44498779 57.92356812 32.875 57.9375 C29.61625 57.958125 26.3575 57.97875 23 58 C23 66.58 23 75.16 23 84 C18.48253443 84.90349311 14.37731708 85.14978634 9.8125 85.125 C9.08869141 85.12886719 8.36488281 85.13273438 7.61914062 85.13671875 C2.25347222 85.12673611 2.25347222 85.12673611 0 84 C0 56.28 0 28.56 0 0 Z M23 19 C21.82170801 21.35658397 21.95585628 22.52573236 22.12109375 25.1328125 C22.16943359 25.93847656 22.21777344 26.74414062 22.26757812 27.57421875 C22.32365234 28.41597656 22.37972656 29.25773438 22.4375 30.125 C22.48970703 30.97449219 22.54191406 31.82398438 22.59570312 32.69921875 C22.72551378 34.79979124 22.8621174 36.89994191 23 39 C27.41079226 39.04980916 31.82143112 39.08591133 36.23242188 39.10986328 C37.72984676 39.11985901 39.22725244 39.13346014 40.72460938 39.15087891 C42.88937143 39.17541288 45.05387323 39.18654744 47.21875 39.1953125 C48.51748047 39.20578613 49.81621094 39.21625977 51.15429688 39.22705078 C58.80201291 38.78988789 58.80201291 38.78988789 65.0625 34.875 C66.337938 30.96365679 66.17471192 27.92665941 65 24 C63.6469872 21.39685006 63.6469872 21.39685006 61 20 C53.00510945 18.7221626 45.01573837 18.88574194 36.9375 18.9375 C35.58138187 18.94252686 34.22526192 18.94708766 32.86914062 18.95117188 C29.57938006 18.96287921 26.28971406 18.97927789 23 19 Z " fill="#027FFD" transform="translate(772,771)"/>
<path d="M0 0 C25.74 0 51.48 0 78 0 C78.495 9.405 78.495 9.405 79 19 C77 21 77 21 74.27636719 21.13525391 C73.12813477 21.08288574 71.97990234 21.03051758 70.796875 20.9765625 C69.51562744 20.92491943 68.23437988 20.87327637 66.91430664 20.82006836 C66.23401398 20.78815399 65.55372131 20.75623962 64.85281372 20.72335815 C61.33369949 20.55875319 57.81336593 20.42680136 54.29296875 20.29296875 C53.23746071 20.25173637 53.23746071 20.25173637 52.16062927 20.20967102 C42.77505347 19.85666333 33.39029257 19.91131938 24 20 C23.67 24.29 23.34 28.58 23 33 C23.94689697 32.83701416 24.89379395 32.67402832 25.86938477 32.50610352 C30.60930424 31.83262081 35.31067093 31.87507099 40.08984375 31.90234375 C41.03436905 31.9037587 41.97889435 31.90517365 42.95204163 31.90663147 C45.94722763 31.9121964 48.94233687 31.92474233 51.9375 31.9375 C53.97721246 31.94251954 56.01692609 31.94708165 58.05664062 31.95117188 C63.03778966 31.96215433 68.01888185 31.9793946 73 32 C74.04389637 35.79254704 74.13316894 39.24598778 74.125 43.1875 C74.12886719 45.06501953 74.12886719 45.06501953 74.1328125 46.98046875 C74 50 74 50 73 51 C71.54321129 51.11711499 70.0809486 51.16722664 68.61962891 51.18945312 C67.2228038 51.21452942 67.2228038 51.21452942 65.79776001 51.2401123 C64.78426483 51.25368774 63.77076965 51.26726318 62.7265625 51.28125 C61.69187836 51.29965942 60.65719421 51.31806885 59.59115601 51.33703613 C56.26916377 51.39599363 52.9471189 51.4487061 49.625 51.5 C45.26290964 51.56756567 40.90098697 51.64128453 36.5390625 51.71875 C35.52961578 51.73232544 34.52016907 51.74590088 33.48013306 51.7598877 C32.542612 51.77660522 31.60509094 51.79332275 30.63916016 51.81054688 C29.40125229 51.82933899 29.40125229 51.82933899 28.13833618 51.84851074 C25.8132194 51.92426228 25.8132194 51.92426228 23 53 C23.08378906 53.69867187 23.16757812 54.39734375 23.25390625 55.1171875 C23.35574219 56.02726563 23.45757813 56.93734375 23.5625 57.875 C23.66691406 58.77992188 23.77132812 59.68484375 23.87890625 60.6171875 C24 63 24 63 23 65 C23.8945137 64.8934182 23.8945137 64.8934182 24.80709839 64.78468323 C31.16931937 64.08041433 37.423075 63.86694361 43.8203125 63.90234375 C44.80498505 63.9037587 45.78965759 63.90517365 46.8041687 63.90663147 C49.911145 63.91217385 53.01804593 63.92471517 56.125 63.9375 C58.24739478 63.94252246 60.36979071 63.94708405 62.4921875 63.95117188 C67.66148683 63.96212433 72.83073069 63.97934834 78 64 C78.94110889 68.3147726 79.1172559 72.410968 79.0625 76.8125 C79.05798828 77.50537109 79.05347656 78.19824219 79.04882812 78.91210938 C79.03713156 80.60811068 79.01919924 82.30406703 79 84 C75.25142347 85.19115857 71.68218418 85.12700453 67.76879883 85.12939453 C66.68768578 85.13202301 66.68768578 85.13202301 65.58473206 85.13470459 C63.20880711 85.13909661 60.83295691 85.13619538 58.45703125 85.1328125 C56.80604539 85.13348608 55.15505962 85.13445656 53.5040741 85.13571167 C50.04836073 85.13718486 46.59267325 85.1350454 43.13696289 85.13037109 C38.6979839 85.12466062 34.25906519 85.12796352 29.82008839 85.13394356 C26.41358481 85.13754796 23.00709566 85.13641138 19.60059166 85.13381577 C17.96305013 85.13314685 16.32550732 85.13397368 14.6879673 85.13629532 C12.40628177 85.13882131 10.12469566 85.13498267 7.84301758 85.12939453 C5.89254265 85.12820114 5.89254265 85.12820114 3.90266418 85.12698364 C1 85 1 85 0 84 C-0.09509559 81.38311559 -0.12556 78.792711 -0.11352539 76.17553711 C-0.11367142 75.35609116 -0.11381744 74.5366452 -0.1139679 73.69236755 C-0.11326852 70.97066647 -0.10547501 68.24903295 -0.09765625 65.52734375 C-0.09579216 63.64547259 -0.09436821 61.76360094 -0.09336853 59.88172913 C-0.08954267 54.91851471 -0.07971181 49.95532936 -0.06866455 44.99212646 C-0.05665764 39.04252473 -0.05204852 33.09291329 -0.04621124 27.14330292 C-0.03650008 18.09551503 -0.01734401 9.04779099 0 0 Z " fill="#027FFE" transform="translate(680,771)"/>
<path d="M0 0 C9.24 0 18.48 0 28 0 C29.85625 3.8775 31.7125 7.755 33.625 11.75 C42.77826866 30.78041587 52.27432884 49.64089669 61.74853516 68.51293945 C62.12343079 69.26362701 62.49832642 70.01431458 62.88458252 70.78775024 C63.63839643 72.28281794 64.40434152 73.77182122 65.18133545 75.25497437 C68 80.68465551 68 80.68465551 68 84 C65.29633504 84.50693718 62.74044932 84.79475137 60 85 C58.73027344 85.11085938 57.46054687 85.22171875 56.15234375 85.3359375 C51.74840251 85.52149682 48.24267481 85.33606652 44 84 C40.19563879 80.23912473 38.50850342 75.01820695 37 70 C37 69.34 37 68.68 37 68 C21.82 68 6.64 68 -9 68 C-9.66 69.98 -10.32 71.96 -11 74 C-12.65 77.3 -14.3 80.6 -16 84 C-24.25 84 -32.5 84 -41 84 C-39.1180484 79.295121 -37.04782802 74.7601124 -34.875 70.1875 C-34.34519531 69.06311523 -34.34519531 69.06311523 -33.8046875 67.91601562 C-30.37958314 60.69118611 -26.79124197 53.54893321 -23.20513916 46.40322876 C-20.93447042 41.87517374 -18.67101014 37.34351228 -16.40625 32.8125 C-15.42971609 30.85936071 -14.45315338 28.90623581 -13.4765625 26.953125 C-12.98833008 25.97666016 -12.50009766 25.00019531 -11.99707031 23.99414062 C-7.99804688 15.99609375 -3.99902344 7.99804688 0 0 Z M13 20 C11.03898368 24.0612102 9.08165802 28.12418843 7.125 32.1875 C6.56941406 33.33798828 6.01382813 34.48847656 5.44140625 35.67382812 C4.90644531 36.78564453 4.37148438 37.89746094 3.8203125 39.04296875 C3.32805176 40.06414795 2.83579102 41.08532715 2.32861328 42.13745117 C1.12535883 44.72990955 0.03162048 47.33533715 -1 50 C-0.29391602 50 0.41216797 50 1.13964844 50 C9.75976562 50 18.37988281 50 27 50 C27.33 49.34 27.66 48.68 28 48 C26.93397785 45.16157287 26.93397785 45.16157287 25.32421875 41.93359375 C25.03899857 41.33950211 24.75377838 40.74541046 24.45991516 40.13331604 C23.85416131 38.87648389 23.24444191 37.62155656 22.63110352 36.3684082 C21.69192228 34.44654937 20.76798348 32.51790696 19.84570312 30.58789062 C19.25610668 29.36935659 18.66564063 28.15124285 18.07421875 26.93359375 C17.53369873 25.82040771 16.99317871 24.70722168 16.4362793 23.56030273 C15.25528683 20.89378265 15.25528683 20.89378265 13 20 Z " fill="#027FFE" transform="translate(409,771)"/>
<path d="M0 0 C7.26 0.33 14.52 0.66 22 1 C22.33 12.22 22.66 23.44 23 35 C24.8975 33.246875 26.795 31.49375 28.75 29.6875 C32.20070887 26.5011582 35.65280352 23.31635868 39.11328125 20.140625 C39.60127197 19.69090332 40.0892627 19.24118164 40.59204102 18.77783203 C41.58206268 17.87542145 42.5815291 16.98327693 43.58959961 16.10107422 C46.16080685 13.82849876 48.27592783 11.62870115 50.328125 8.8671875 C54.39121355 3.87137736 57.16431937 1.37668984 63.55810547 0.52734375 C72.69152859 -0.07937178 81.87858938 0.4003486 91 1 C87.77590308 5.05932493 84.60029882 8.34330472 80.5 11.5625 C76.74436968 14.5216413 73.35239636 17.59231674 70 21 C67.62511685 23.29336145 65.22123431 25.55478351 62.8125 27.8125 C61.86987305 28.7087207 61.86987305 28.7087207 60.90820312 29.62304688 C60.30556641 30.18701172 59.70292969 30.75097656 59.08203125 31.33203125 C58.53780518 31.84483643 57.9935791 32.3576416 57.43286133 32.88598633 C56 34 56 34 54 34 C54 34.66 54 35.32 54 36 C52.46875 37.2890625 52.46875 37.2890625 50.5 38.625 C49.8503125 39.07101562 49.200625 39.51703125 48.53125 39.9765625 C48.0259375 40.31429687 47.520625 40.65203125 47 41 C48.10026413 44.3007924 48.82709337 44.92480282 51.4375 47.0625 C54.79158015 49.90056782 57.91689575 52.86924344 61 56 C64.51847524 59.56138347 68.12570412 62.89888084 71.9296875 66.1484375 C75.32024743 69.18074959 78.46558248 72.45540629 81.65625 75.6953125 C83.58234152 77.58930249 85.51600062 79.31876936 87.625 81 C88.40875 81.66 89.1925 82.32 90 83 C90 83.66 90 84.32 90 85 C83.2864034 85.96119775 76.58218291 86.15572924 69.8125 86 C69.06500488 86.00717041 68.31750977 86.01434082 67.54736328 86.02172852 C60.79730821 85.76508657 57.58123591 82.69487318 53 78 C52.21729736 77.22914063 51.43459473 76.45828125 50.62817383 75.6640625 C47.19502851 72.26741507 43.81100201 68.82328992 40.421875 65.3828125 C35.96955048 60.88951567 31.49825317 56.57029664 26.59375 52.5703125 C24.84903458 50.85125466 23.96771549 49.23542277 23 47 C22.67 47.33 22.34 47.66 22 48 C22.14687256 48.85867676 22.29374512 49.71735352 22.44506836 50.60205078 C23.04788478 54.2932074 23.01784125 57.63137969 22.87890625 61.3671875 C22.85529526 62.04677521 22.83168427 62.72636292 22.80735779 63.42654419 C22.73138273 65.5762779 22.64707883 67.72558937 22.5625 69.875 C22.50921284 71.34112585 22.45647301 72.80727169 22.40429688 74.2734375 C22.27585887 77.84921152 22.13995444 81.42465607 22 85 C18.3545658 85.19588601 14.7086421 85.38030536 11.0625 85.5625 C9.50112305 85.64661133 9.50112305 85.64661133 7.90820312 85.73242188 C6.91884766 85.78076172 5.92949219 85.82910156 4.91015625 85.87890625 C3.53549194 85.94960327 3.53549194 85.94960327 2.13305664 86.02172852 C0 86 0 86 -1 85 C-1.1356058 82.53260354 -1.20723163 80.09154036 -1.23706055 77.62207031 C-1.25017273 76.8496701 -1.26328491 76.0772699 -1.27679443 75.28146362 C-1.31876138 72.71373552 -1.35317276 70.1459761 -1.38671875 67.578125 C-1.41236472 65.79791063 -1.43814875 64.01769824 -1.46406555 62.23748779 C-1.51712725 58.49820773 -1.56603432 54.75889819 -1.61254883 51.01953125 C-1.67280837 46.22981107 -1.74704368 41.44042075 -1.82492352 36.65095901 C-1.88257102 32.97072416 -1.93084781 29.29040952 -1.976511 25.61000824 C-1.99990609 23.84454378 -2.02665679 22.07912048 -2.05682945 20.31375885 C-2.09806105 17.84102015 -2.1261996 15.3684574 -2.15112305 12.89550781 C-2.16609329 12.16699615 -2.18106354 11.4384845 -2.19648743 10.68789673 C-2.22338776 6.36207998 -1.67412099 4.18530247 0 0 Z " fill="#027FFE" transform="translate(582,770)"/>
<path d="M0 0 C1.30097122 0.00007553 2.60194244 0.00015106 3.94233704 0.00022888 C5.35242756 0.00533477 6.76251769 0.01055075 8.17260742 0.01586914 C9.62277681 0.0177356 11.07294682 0.01915843 12.52311707 0.02015686 C16.32890583 0.02396409 20.13465608 0.03377897 23.94042969 0.04486084 C27.82836384 0.05511362 31.71630425 0.05966275 35.60424805 0.06469727 C43.2247103 0.07540293 50.84513292 0.09298511 58.46557617 0.11352539 C58.46557617 6.71352539 58.46557617 13.31352539 58.46557617 20.11352539 C56.69923828 20.12810791 54.93290039 20.14269043 53.11303711 20.15771484 C47.27349106 20.20938534 41.4341825 20.27467656 35.59489059 20.3492403 C32.05490144 20.39394567 28.51502741 20.43320102 24.97485352 20.45996094 C20.90375686 20.49097378 16.83328074 20.54576254 12.76245117 20.60180664 C10.85758942 20.61139153 10.85758942 20.61139153 8.91424561 20.62117004 C7.14286224 20.65086128 7.14286224 20.65086128 5.33569336 20.68115234 C4.29644714 20.6922554 3.25720093 20.70335846 2.1864624 20.71479797 C-0.92924095 21.17138316 -2.29860336 21.9240414 -4.53442383 24.11352539 C-6.32432177 29.48321923 -5.76176548 35.24425583 -5.78442383 40.86352539 C-5.80504883 42.12680664 -5.82567383 43.39008789 -5.84692383 44.69165039 C-6.11589666 53.93622966 -6.11589666 53.93622966 -2.53442383 62.11352539 C4.22334104 64.45047905 10.74816275 64.37432146 17.84057617 64.30883789 C19.58818237 64.30459305 19.58818237 64.30459305 21.37109375 64.30026245 C25.06936179 64.28912346 28.76738209 64.26403018 32.46557617 64.23852539 C34.98249974 64.22848749 37.49942713 64.21936305 40.01635742 64.21118164 C46.16619155 64.18920465 52.31584194 64.15471796 58.46557617 64.11352539 C58.46557617 71.04352539 58.46557617 77.97352539 58.46557617 85.11352539 C51.09330411 85.15896205 43.72111036 85.19554737 36.34872723 85.21714973 C32.92432583 85.22752506 29.50002636 85.2415678 26.07568359 85.2644043 C22.12623371 85.29057363 18.17682308 85.3000498 14.22729492 85.30883789 C13.01538986 85.31916046 11.8034848 85.32948303 10.55485535 85.34011841 C-0.35407466 85.34153858 -11.93641278 84.96809857 -20.47583008 77.39086914 C-27.33413789 70.18893004 -29.00446878 62.2785477 -28.93286133 52.54711914 C-28.93573151 51.66878922 -28.93860168 50.79045929 -28.94155884 49.88551331 C-28.94358598 48.04264678 -28.93815144 46.19975806 -28.92553711 44.35693359 C-28.90944436 41.55460059 -28.92544177 38.7537053 -28.94458008 35.95141602 C-28.94259778 34.14998058 -28.93875439 32.34854603 -28.93286133 30.54711914 C-28.93893402 29.71981796 -28.94500671 28.89251678 -28.95126343 28.04014587 C-28.84902086 19.48579677 -26.29418217 13.16936293 -20.43286133 6.87524414 C-14.33579392 1.21726595 -8.1271674 -0.01578091 0 0 Z " fill="#017FFE" transform="translate(508.534423828125,770.886474609375)"/>
<path d="M0 0 C0.87537415 0.00359528 1.75074829 0.00719055 2.65264893 0.01089478 C4.02812141 0.01067574 4.02812141 0.01067574 5.43138123 0.01045227 C8.47773564 0.01115177 11.52402973 0.01894589 14.57037354 0.02676392 C16.67644721 0.02862796 18.78252132 0.03005193 20.88859558 0.03105164 C26.44364612 0.03487786 31.99867069 0.04470903 37.55371094 0.05575562 C43.21746469 0.0659675 48.88122262 0.07054878 54.54498291 0.07559204 C65.66673914 0.0863312 76.78847606 0.10340887 87.91021729 0.12442017 C87.93713414 2.58282622 87.95701531 5.04093898 87.97271729 7.49942017 C87.98109619 8.19809204 87.9894751 8.89676392 87.99810791 9.61660767 C88.02349854 14.89785767 88.02349854 14.89785767 86.91021729 17.12442017 C87.57021729 17.12442017 88.23021729 17.12442017 88.91021729 17.12442017 C88.91021729 17.78442017 88.91021729 18.44442017 88.91021729 19.12442017 C77.5216265 22.92061709 64.90818234 20.52435233 52.91021729 20.12442017 C52.58021729 41.57442017 52.25021729 63.02442017 51.91021729 85.12442017 C38.41021729 85.12442017 38.41021729 85.12442017 33.66021729 84.62442017 C32.74756104 84.53160767 31.83490479 84.43879517 30.89459229 84.34317017 C29.91232666 84.23488892 29.91232666 84.23488892 28.91021729 84.12442017 C28.9124379 83.35212067 28.91465851 82.57982117 28.91694641 81.78411865 C28.93696233 74.51496676 28.95219807 67.24582819 28.96202946 59.97665596 C28.96725372 56.23927767 28.97434313 52.5019221 28.98565674 48.76455688 C28.99650179 45.159522 29.00249757 41.55450901 29.00509453 37.94945908 C29.00694585 36.57231171 29.01056089 35.19516557 29.01594734 33.8180275 C29.02317909 31.89298923 29.02362552 29.96792905 29.02374268 28.0428772 C29.02596329 26.94589508 29.0281839 25.84891296 29.0304718 24.71868896 C29.08653374 22.13928793 29.08653374 22.13928793 27.91021729 20.12442017 C16.69021729 20.12442017 5.47021729 20.12442017 -6.08978271 20.12442017 C-6.95331736 15.80674692 -7.22391784 12.24101209 -7.21478271 7.87442017 C-7.21736084 6.63176392 -7.21993896 5.38910767 -7.22259521 4.10879517 C-6.9880727 -1.16106374 -4.69857606 0.00815212 0 0 Z " fill="#037FFD" transform="translate(165.08978271484375,770.8755798339844)"/>
<path d="M0 0 C0.09301169 8.58022294 0.1639218 17.16023238 0.20724869 25.74083614 C0.22805198 29.72592518 0.25623497 33.71066724 0.30175781 37.69555664 C0.34547727 41.54704217 0.36919159 45.39819567 0.37950897 49.24991035 C0.38685389 50.71342756 0.40119607 52.17692826 0.42292023 53.64030266 C0.55568296 62.96094406 0.23850097 70.84388542 -5.89453125 78.3046875 C-17.21046252 87.56946218 -29.03294299 87.16807276 -43.109375 87.09765625 C-44.20219788 87.0962413 -45.29502075 87.09482635 -46.42095947 87.09336853 C-49.86400249 87.08783294 -53.3069771 87.07529306 -56.75 87.0625 C-59.10416572 87.05747666 -61.45833247 87.05291522 -63.8125 87.04882812 C-69.54169246 87.03788472 -75.27083469 87.02066569 -81 87 C-81 80.07 -81 73.14 -81 66 C-79.41541992 65.9906543 -77.83083984 65.98130859 -76.19824219 65.97167969 C-70.32376914 65.93183247 -64.4498227 65.86608743 -58.57568359 65.79248047 C-56.03245809 65.76424044 -53.48914433 65.7430411 -50.94580078 65.72900391 C-47.29153147 65.70761723 -43.63832686 65.66098609 -39.984375 65.609375 C-38.27637726 65.60753204 -38.27637726 65.60753204 -36.53387451 65.60565186 C-35.47307678 65.58593323 -34.41227905 65.5662146 -33.31933594 65.54589844 C-32.38667908 65.53701599 -31.45402222 65.52813354 -30.49310303 65.51898193 C-27.23969989 64.84173056 -26.04373641 63.57188646 -24 61 C-22.56528259 55.10292065 -22.87130836 48.96145365 -22.90234375 42.921875 C-22.9037587 41.8734845 -22.90517365 40.82509399 -22.90663147 39.74493408 C-22.91220216 36.41325965 -22.9247415 33.08165388 -22.9375 29.75 C-22.94251949 27.49479265 -22.94708161 25.23958423 -22.95117188 22.984375 C-22.96098114 18.0348722 -22.97517422 13.08540445 -22.99327087 8.13592529 C-23.00076469 5.75727602 -23 3.37865896 -23 1 C-19.54170353 0.83256252 -16.08335707 0.66618079 -12.625 0.5 C-11.64015625 0.45230469 -10.6553125 0.40460937 -9.640625 0.35546875 C-8.69960938 0.31035156 -7.75859375 0.26523437 -6.7890625 0.21875 C-5.91975098 0.17685547 -5.05043945 0.13496094 -4.15478516 0.09179688 C-2.77077412 0.03283606 -1.38526637 0 0 0 Z " fill="#027FFE" transform="translate(432,659)"/>
<path d="M0 0 C45.65759911 -0.06868975 91.31519274 -0.12154079 136.97283335 -0.15319599 C142.36502701 -0.15694804 147.75722056 -0.16083101 153.14941406 -0.16479492 C154.75962445 -0.16597532 154.75962445 -0.16597532 156.40236434 -0.16717956 C173.77629651 -0.18022798 191.15019885 -0.20387872 208.52411333 -0.23145839 C226.35576509 -0.25952827 244.18740125 -0.27617961 262.0190742 -0.28226548 C273.01920659 -0.28637863 284.01925467 -0.29936256 295.01936111 -0.3237494 C302.56595285 -0.33962612 310.11250109 -0.34439597 317.65910831 -0.34050413 C322.01092535 -0.33858561 326.36259522 -0.34149468 330.71438599 -0.35761642 C334.70460359 -0.37229019 338.694576 -0.37290425 342.68480524 -0.36269668 C344.12243008 -0.3614364 345.56007065 -0.36517841 346.99766484 -0.37464955 C355.78564589 -0.42914344 363.58306414 0.41288858 372 3 C370.515 3.99 370.515 3.99 369 5 C367.31734748 4.37477787 365.65306457 3.69971405 364 3 C351.6958906 1.44515863 339.08498281 1.85232851 326.70703125 1.8671875 C324.70163461 1.86651211 322.69623804 1.86554013 320.69084167 1.86428833 C316.52329719 1.86282616 312.35577436 1.86492029 308.18823242 1.86962891 C302.85095179 1.87536638 297.51372102 1.87201264 292.17644215 1.86605644 C288.05093509 1.86244541 283.92543989 1.86359122 279.79993248 1.86618423 C277.83076662 1.86684989 275.86159967 1.86603774 273.89243507 1.86370468 C271.15067292 1.86116482 268.4089924 1.86503579 265.66723633 1.87060547 C264.85943222 1.86858124 264.05162811 1.86655701 263.21934509 1.86447144 C260.15500645 1.87600126 257.27698382 1.94209172 254.27079773 2.57058716 C251.553718 3.08439291 249.70342924 2.54307878 247 2 C245.38030713 1.91395579 243.75770351 1.87375896 242.13572693 1.87301636 C241.18383484 1.87019653 240.23194275 1.86737671 239.25120544 1.86447144 C238.21883255 1.86649567 237.18645966 1.8685199 236.12280273 1.87060547 C234.47811508 1.86797699 234.47811508 1.86797699 232.80020142 1.86529541 C229.17798273 1.86089619 225.55581292 1.86380793 221.93359375 1.8671875 C219.41683442 1.86651396 216.90007515 1.86554351 214.38331604 1.86428833 C209.11011252 1.86281401 203.83692171 1.86486212 198.5637207 1.86962891 C192.47034916 1.87507354 186.37701106 1.87330571 180.28364033 1.8678025 C174.41621737 1.86271584 168.54880712 1.86325653 162.68138313 1.86618423 C160.18666644 1.86685206 157.6919489 1.86603011 155.1972332 1.86370468 C151.71406657 1.86117025 148.23096454 1.8650299 144.74780273 1.87060547 C143.19620705 1.86756912 143.19620705 1.86756912 141.61326599 1.86447144 C140.18965759 1.86870117 140.18965759 1.86870117 138.73728943 1.87301636 C137.91416984 1.87339338 137.09105024 1.87377041 136.24298763 1.87415886 C133.98858741 1.92581054 133.98858741 1.92581054 131.82891941 2.57043648 C130 3 130 3 128 2 C127.01 2.33 126.02 2.66 125 3 C123.33333333 2.66666667 121.66666667 2.33333333 120 2 C119.01 2.33 118.02 2.66 117 3 C114.66502387 2.67837593 112.33197473 2.34270896 110 2 C106.95148747 1.85557663 103.90698687 1.85956794 100.85546875 1.8671875 C100.00447098 1.86623077 99.15347321 1.86527405 98.27668762 1.86428833 C96.49085414 1.86361159 94.70501813 1.86543038 92.91918945 1.86962891 C90.17849277 1.87501771 87.43795749 1.86964983 84.69726562 1.86328125 C82.95833297 1.86394147 81.21940042 1.86522147 79.48046875 1.8671875 C78.65967331 1.86516327 77.83887787 1.86313904 76.99320984 1.86105347 C72.8642724 1.77243992 72.8642724 1.77243992 69 3 C66.66383351 2.68713948 64.3307936 2.35065186 62 2 C59.80856149 1.91850009 57.61506818 1.88206224 55.42211914 1.88647461 C53.53095116 1.88658791 53.53095116 1.88658791 51.60157776 1.88670349 C50.24610351 1.8918085 48.89062967 1.89702447 47.53515625 1.90234375 C46.13268586 1.90421146 44.73021481 1.9056337 43.32774353 1.90663147 C39.6567908 1.91042884 35.98587835 1.92023504 32.31494141 1.93133545 C28.56087794 1.94160969 24.80680789 1.94614191 21.05273438 1.95117188 C13.70180466 1.96186009 6.350908 1.97890268 -1 2 C-0.67 1.34 -0.34 0.68 0 0 Z " fill="#05D3F7" transform="translate(379,191)"/>
<path d="M0 0 C1.98 0 3.96 0 6 0 C7.05619003 4.28297531 7.11702092 8.42985646 7.0625 12.8125 C7.05798828 13.50537109 7.05347656 14.19824219 7.04882812 14.91210938 C7.03713156 16.60811068 7.01919924 18.30406703 7 20 C3.25142347 21.19115857 -0.31781582 21.12700453 -4.23120117 21.12939453 C-5.31231422 21.13202301 -5.31231422 21.13202301 -6.41526794 21.13470459 C-8.79119289 21.13909661 -11.16704309 21.13619538 -13.54296875 21.1328125 C-15.19395461 21.13348608 -16.84494038 21.13445656 -18.4959259 21.13571167 C-21.95163927 21.13718486 -25.40732675 21.1350454 -28.86303711 21.13037109 C-33.3020161 21.12466062 -37.74093481 21.12796352 -42.17991161 21.13394356 C-45.58641519 21.13754796 -48.99290434 21.13641138 -52.39940834 21.13381577 C-54.03694987 21.13314685 -55.67449268 21.13397368 -57.3120327 21.13629532 C-59.59371823 21.13882131 -61.87530434 21.13498267 -64.15698242 21.12939453 C-66.10745735 21.12820114 -66.10745735 21.12820114 -68.09733582 21.12698364 C-71 21 -71 21 -72 20 C-72.04092937 17.66702567 -72.04241723 15.33294775 -72 13 C-71.67 13 -71.34 13 -71 13 C-71 14.98 -71 16.96 -71 19 C-45.92 19 -20.84 19 5 19 C5 13.39 5 7.78 5 2 C3.35 1.67 1.7 1.34 0 1 C0 0.67 0 0.34 0 0 Z " fill="#0677F3" transform="translate(752,835)"/>
<path d="M0 0 C2.31 0 4.62 0 7 0 C4.60161274 3.59758089 3.07972248 3.64464836 -0.98828125 4.54296875 C-5.67616078 5.60798216 -9.81474107 7.88465045 -14.06640625 10.0546875 C-16 11 -16 11 -18.9375 12.125 C-21.1760887 12.81156559 -21.1760887 12.81156559 -22 15 C-22 14.01 -22 13.02 -22 12 C-7.40318907 3.3690205 -7.40318907 3.3690205 0 1 C0 0.67 0 0.34 0 0 Z " fill="#04D8FA" transform="translate(369,192)"/>
<path d="M0 0 C0.99 0.33 1.98 0.66 3 1 C2.54287549 3.13324773 2.10698416 4.82610066 0.95703125 6.6953125 C-0.78126396 10.88141118 0.03271078 15.42604307 0.22265625 19.8828125 C0.14917969 20.91148437 0.07570313 21.94015625 0 23 C-0.99 23.66 -1.98 24.32 -3 25 C-3.46112386 16.39235455 -1.72848437 8.38520694 0 0 Z " fill="#03CFFB" transform="translate(322,238)"/>
<path d="M0 0 C7.92 0 15.84 0 24 0 C23.67 0.66 23.34 1.32 23 2 C20.42408454 2.37227683 17.96532023 2.60686288 15.375 2.75 C14.67503906 2.80542969 13.97507812 2.86085938 13.25390625 2.91796875 C8.3787793 3.21644591 4.62266031 2.57728567 0 1 C0 0.67 0 0.34 0 0 Z " fill="#00C0FC" transform="translate(686,325)"/>
<path d="M0 0 C0.66 0.33 1.32 0.66 2 1 C2.75 3.4375 2.75 3.4375 3 6 C2.34 6.66 1.68 7.32 1 8 C1.165 9.155 1.33 10.31 1.5 11.5 C1.665 12.655 1.83 13.81 2 15 C1.34 15.66 0.68 16.32 0 17 C0 17.99 0 18.98 0 20 C-0.66 20.66 -1.32 21.32 -2 22 C-1.85758352 19.64558284 -1.71115192 17.29152516 -1.5625 14.9375 C-1.48128906 13.62652344 -1.40007812 12.31554687 -1.31640625 10.96484375 C-1.02101751 7.26336762 -0.56734612 3.66629552 0 0 Z " fill="#03C7FA" transform="translate(317,270)"/>
<path d="M0 0 C1.65 0 3.3 0 5 0 C3.68 2.31 2.36 4.62 1 7 C0.34 7 -0.32 7 -1 7 C-0.67 10.3 -0.34 13.6 0 17 C-0.66 17.33 -1.32 17.66 -2 18 C-3.21357445 11.04952816 -2.71975816 6.49976102 0 0 Z " fill="#0886F6" transform="translate(291,478)"/>
<path d="M0 0 C0.33 0 0.66 0 1 0 C0.5140207 7.3620694 0.02325928 14.69100518 -1 22 C-3.2573496 19.61120979 -4.01435188 18.54234981 -3.92578125 15.1953125 C-3.72339844 14.18210937 -3.52101563 13.16890625 -3.3125 12.125 C-3.00119141 10.54332031 -3.00119141 10.54332031 -2.68359375 8.9296875 C-1.97041792 5.87321964 -1.13825556 2.92694288 0 0 Z " fill="#02CDFB" transform="translate(782,272)"/>
<path d="M0 0 C0.33 0 0.66 0 1 0 C1 7.26 1 14.52 1 22 C0.67 22 0.34 22 0 22 C0 20.35 0 18.7 0 17 C-0.66 17 -1.32 17 -2 17 C-1.85941524 14.54126232 -1.71277001 12.08314825 -1.5625 9.625 C-1.52318359 8.92632812 -1.48386719 8.22765625 -1.44335938 7.5078125 C-1.11328125 2.2265625 -1.11328125 2.2265625 0 0 Z " fill="#05D4FB" transform="translate(785,235)"/>
<path d="M0 0 C1.73543126 2.60314689 2.61121812 3.98694043 3 7 C2.34 7.66 1.68 8.32 1 9 C1.33 9.99 1.66 10.98 2 12 C1.01 12.99 0.02 13.98 -1 15 C-0.67 10.05 -0.34 5.1 0 0 Z " fill="#05A1FA" transform="translate(303,375)"/>
<path d="M0 0 C1.2077558 3.62326739 0.54311128 4.64146369 -1 8 C-4.3 8 -7.6 8 -11 8 C-10.34 7.34 -9.68 6.68 -9 6 C-5.375 6.375 -5.375 6.375 -2 7 C-2.04125 6.21625 -2.0825 5.4325 -2.125 4.625 C-2 2 -2 2 0 0 Z " fill="#0586FD" transform="translate(626,548)"/>
<path d="M0 0 C0.33 0 0.66 0 1 0 C1.16682272 4.92127034 1.24828052 8.50343896 -1 13 C-1.33 13 -1.66 13 -2 13 C-2 10.69 -2 8.38 -2 6 C-1.34 6 -0.68 6 0 6 C-0.2784375 4.7934375 -0.2784375 4.7934375 -0.5625 3.5625 C-0.706875 2.716875 -0.85125 1.87125 -1 1 C-0.67 0.67 -0.34 0.34 0 0 Z " fill="#02C4FB" transform="translate(778,300)"/>
<path d="M0 0 C1.485 0.99 1.485 0.99 3 2 C3.1875 5.125 3.1875 5.125 3 8 C2.01 8.33 1.02 8.66 0 9 C0 6.03 0 3.06 0 0 Z " fill="#039DFD" transform="translate(343,406)"/>
<path d="M0 0 C0.66 0.66 1.32 1.32 2 2 C0.68 4.64 -0.64 7.28 -2 10 C-2.66 10 -3.32 10 -4 10 C-3.43454163 6.04179141 -2.19097652 3.3340947 0 0 Z " fill="#04D5FB" transform="translate(329,223)"/>
<path d="M0 0 C0.91007813 0.00902344 1.82015625 0.01804687 2.7578125 0.02734375 C3.45648437 0.03894531 4.15515625 0.05054688 4.875 0.0625 C3 1.5859375 3 1.5859375 0.875 3.0625 C-1.125 2.6875 -1.125 2.6875 -3.125 2.0625 C-5.31203385 2.44157282 -5.31203385 2.44157282 -7.125 3.0625 C-7.125 2.4025 -7.125 1.7425 -7.125 1.0625 C-4.60024538 -0.19987731 -2.81299534 -0.03606404 0 0 Z " fill="#0587FD" transform="translate(582.125,554.9375)"/>
<path d="M0 0 C1.53166168 4.08443115 0.63081652 7.79455657 0 12 C-0.33 11.01 -0.66 10.02 -1 9 C-1.66 9 -2.32 9 -3 9 C-2.67 7.02 -2.34 5.04 -2 3 C-1.34 3 -0.68 3 0 3 C0 2.01 0 1.02 0 0 Z " fill="#088AFC" transform="translate(746,538)"/>
<path d="M0 0 C0.33 0 0.66 0 1 0 C1.37211538 7.56634615 1.37211538 7.56634615 -0.51171875 9.76171875 C-1.00285156 10.17035156 -1.49398438 10.57898438 -2 11 C-1.85957123 9.35369672 -1.71250671 7.70795821 -1.5625 6.0625 C-1.48128906 5.14597656 -1.40007812 4.22945313 -1.31640625 3.28515625 C-1 1 -1 1 0 0 Z " fill="#00C3FD" transform="translate(358,309)"/>
<path d="M0 0 C0.91004613 3.07140568 1.33694826 5.79899154 1 9 C0.01 9.66 -0.98 10.32 -2 11 C-1.85957123 9.35369672 -1.71250671 7.70795821 -1.5625 6.0625 C-1.48128906 5.14597656 -1.40007813 4.22945313 -1.31640625 3.28515625 C-1 1 -1 1 0 0 Z " fill="#0490FD" transform="translate(579,475)"/>
<path d="M0 0 C0.99 0.33 1.98 0.66 3 1 C2.67 3.31 2.34 5.62 2 8 C0.4375 6.8125 0.4375 6.8125 -1 5 C-0.6875 2.3125 -0.6875 2.3125 0 0 Z " fill="#0498FD" transform="translate(640,435)"/>
<path d="M0 0 C0.33 0.66 0.66 1.32 1 2 C1.66 2 2.32 2 3 2 C3 3.65 3 5.3 3 7 C2.01 7.33 1.02 7.66 0 8 C0 5.36 0 2.72 0 0 Z " fill="#069DFB" transform="translate(301,390)"/>
<path d="M0 0 C0.66 0.33 1.32 0.66 2 1 C1.40138258 3.35171131 0.73075648 5.6859378 0 8 C-0.99 8.495 -0.99 8.495 -2 9 C-1.125 2.25 -1.125 2.25 0 0 Z " fill="#068BFD" transform="translate(702,528)"/>
<path d="M0 0 C0.66 0 1.32 0 2 0 C2.33 1.98 2.66 3.96 3 6 C1.68 6.99 0.36 7.98 -1 9 C-0.67 6.03 -0.34 3.06 0 0 Z " fill="#02B6FC" transform="translate(439,342)"/>
<path d="M0 0 C1.98 0 3.96 0 6 0 C6 0.33 6 0.66 6 1 C4.02 1 2.04 1 0 1 C0 0.67 0 0.34 0 0 Z " fill="#0A8CFD" transform="translate(364,559)"/>
<path d="M0 0 C4 1 4 1 4 1 Z " fill="#0E80F3" transform="translate(308,769)"/>
<path d="M0 0 C3 1 3 1 3 1 Z " fill="#0A82FB" transform="translate(708,823)"/>
<path d="M0 0 C3 1 3 1 3 1 Z " fill="#098BFD" transform="translate(355,558)"/>
<path d="" fill="#0894FD" transform="translate(0,0)"/>
<path d="" fill="#06B5FC" transform="translate(0,0)"/>
<path d="" fill="#0BAAF4" transform="translate(0,0)"/>
<path d="" fill="#0A81FA" transform="translate(0,0)"/>
<path d="M0 0 C2 1 2 1 2 1 Z " fill="#0885FE" transform="translate(728,823)"/>
<path d="M0 0 C2 1 2 1 2 1 Z " fill="#0784FD" transform="translate(712,823)"/>
<path d="" fill="#0B84FD" transform="translate(0,0)"/>
<path d="M0 0 C2 1 2 1 2 1 Z " fill="#107DED" transform="translate(806,769)"/>
<path d="M0 0 C2 1 2 1 2 1 Z " fill="#0E83F7" transform="translate(662,769)"/>
<path d="M0 0 C2 1 2 1 2 1 Z " fill="#0B84FE" transform="translate(474,746)"/>
<path d="M0 0 C2 1 2 1 2 1 Z " fill="#098EFE" transform="translate(664,576)"/>
<path d="M0 0 C2 1 2 1 2 1 Z " fill="#098CFE" transform="translate(380,559)"/>
<path d="M0 0 C2 1 2 1 2 1 Z " fill="#098BFC" transform="translate(372,559)"/>
<path d="M0 0 C2 1 2 1 2 1 Z " fill="#0E8BFB" transform="translate(337,555)"/>
<path d="" fill="#099CFE" transform="translate(0,0)"/>
<path d="" fill="#0D9CF3" transform="translate(0,0)"/>
<path d="" fill="#07C3FB" transform="translate(0,0)"/>
<path d="" fill="#06C9FA" transform="translate(0,0)"/>
<path d="" fill="#0C7CF2" transform="translate(0,0)"/>
<path d="" fill="#1076E5" transform="translate(0,0)"/>
<path d="" fill="#0E78EB" transform="translate(0,0)"/>
<path d="" fill="#0D79EB" transform="translate(0,0)"/>
<path d="" fill="#0C7CF2" transform="translate(0,0)"/>
<path d="" fill="#0C7EF7" transform="translate(0,0)"/>
<path d="" fill="#0A81F9" transform="translate(0,0)"/>
<path d="" fill="#0E7FF4" transform="translate(0,0)"/>
<path d="" fill="#0B81F9" transform="translate(0,0)"/>
<path d="" fill="#0A82FB" transform="translate(0,0)"/>
<path d="" fill="#0C81F7" transform="translate(0,0)"/>
<path d="" fill="#0B82F7" transform="translate(0,0)"/>
<path d="" fill="#0783FB" transform="translate(0,0)"/>
<path d="" fill="#0983FA" transform="translate(0,0)"/>
<path d="" fill="#0A83FA" transform="translate(0,0)"/>
<path d="" fill="#0983FF" transform="translate(0,0)"/>
<path d="" fill="#0E7CED" transform="translate(0,0)"/>
<path d="" fill="#0A84FF" transform="translate(0,0)"/>
<path d="" fill="#0B85FF" transform="translate(0,0)"/>
<path d="" fill="#0B82FB" transform="translate(0,0)"/>
<path d="" fill="#0983FC" transform="translate(0,0)"/>
<path d="" fill="#0B82FC" transform="translate(0,0)"/>
<path d="" fill="#0986FD" transform="translate(0,0)"/>
<path d="" fill="#0B84FD" transform="translate(0,0)"/>
<path d="" fill="#0984FF" transform="translate(0,0)"/>
<path d="" fill="#0A84FF" transform="translate(0,0)"/>
<path d="" fill="#0A81FB" transform="translate(0,0)"/>
<path d="" fill="#0885FF" transform="translate(0,0)"/>
<path d="" fill="#0885FD" transform="translate(0,0)"/>
<path d="" fill="#0A86FF" transform="translate(0,0)"/>
<path d="" fill="#0A86FE" transform="translate(0,0)"/>
<path d="" fill="#0B82FD" transform="translate(0,0)"/>
<path d="" fill="#0A86FF" transform="translate(0,0)"/>
<path d="" fill="#0984FD" transform="translate(0,0)"/>
<path d="" fill="#0B84FD" transform="translate(0,0)"/>
<path d="" fill="#0985FF" transform="translate(0,0)"/>
<path d="" fill="#0882FF" transform="translate(0,0)"/>
<path d="" fill="#1377DF" transform="translate(0,0)"/>
<path d="" fill="#0C81FC" transform="translate(0,0)"/>
<path d="" fill="#0C84FD" transform="translate(0,0)"/>
<path d="" fill="#127AE4" transform="translate(0,0)"/>
<path d="" fill="#0B84FF" transform="translate(0,0)"/>
<path d="" fill="#1277E4" transform="translate(0,0)"/>
<path d="" fill="#117FF1" transform="translate(0,0)"/>
<path d="" fill="#117DEC" transform="translate(0,0)"/>
<path d="" fill="#0E7CEC" transform="translate(0,0)"/>
<path d="" fill="#107DEE" transform="translate(0,0)"/>
<path d="" fill="#0F7CEC" transform="translate(0,0)"/>
<path d="" fill="#117FEE" transform="translate(0,0)"/>
<path d="" fill="#0F7EEE" transform="translate(0,0)"/>
<path d="" fill="#0D83F7" transform="translate(0,0)"/>
<path d="" fill="#0F82F6" transform="translate(0,0)"/>
<path d="" fill="#0F86FB" transform="translate(0,0)"/>
<path d="" fill="#0B85FB" transform="translate(0,0)"/>
<path d="" fill="#0B83F9" transform="translate(0,0)"/>
<path d="" fill="#0E82F7" transform="translate(0,0)"/>
<path d="" fill="#117DEE" transform="translate(0,0)"/>
<path d="" fill="#0C7FFB" transform="translate(0,0)"/>
<path d="" fill="#0882FD" transform="translate(0,0)"/>
<path d="" fill="#0B84FB" transform="translate(0,0)"/>
<path d="" fill="#0982FC" transform="translate(0,0)"/>
<path d="" fill="#0D84FC" transform="translate(0,0)"/>
<path d="" fill="#0E83FB" transform="translate(0,0)"/>
<path d="" fill="#0A84FF" transform="translate(0,0)"/>
<path d="" fill="#0A84FE" transform="translate(0,0)"/>
<path d="" fill="#0A81FF" transform="translate(0,0)"/>
<path d="" fill="#0A84FF" transform="translate(0,0)"/>
<path d="" fill="#0F88FB" transform="translate(0,0)"/>
<path d="" fill="#0988F7" transform="translate(0,0)"/>
<path d="" fill="#0985F7" transform="translate(0,0)"/>
<path d="" fill="#1084F6" transform="translate(0,0)"/>
<path d="" fill="#0D87F7" transform="translate(0,0)"/>
<path d="" fill="#0E85F6" transform="translate(0,0)"/>
<path d="" fill="#0E87F8" transform="translate(0,0)"/>
<path d="" fill="#1085F6" transform="translate(0,0)"/>
<path d="" fill="#1386F7" transform="translate(0,0)"/>
<path d="" fill="#1186F5" transform="translate(0,0)"/>
<path d="" fill="#0D8DFD" transform="translate(0,0)"/>
<path d="" fill="#078EFE" transform="translate(0,0)"/>
<path d="" fill="#098CFD" transform="translate(0,0)"/>
<path d="" fill="#098CFF" transform="translate(0,0)"/>
<path d="" fill="#0A8CFF" transform="translate(0,0)"/>
<path d="" fill="#098CFF" transform="translate(0,0)"/>
<path d="" fill="#098EFE" transform="translate(0,0)"/>
<path d="" fill="#0F8AFE" transform="translate(0,0)"/>
<path d="" fill="#0A8FFD" transform="translate(0,0)"/>
<path d="" fill="#1084ED" transform="translate(0,0)"/>
<path d="" fill="#0B8DF7" transform="translate(0,0)"/>
<path d="" fill="#0A90FE" transform="translate(0,0)"/>
<path d="" fill="#0A92FF" transform="translate(0,0)"/>
<path d="" fill="#0891FE" transform="translate(0,0)"/>
<path d="" fill="#0792FD" transform="translate(0,0)"/>
<path d="" fill="#0996FF" transform="translate(0,0)"/>
<path d="" fill="#0695FD" transform="translate(0,0)"/>
<path d="" fill="#108BF5" transform="translate(0,0)"/>
<path d="" fill="#0994FE" transform="translate(0,0)"/>
<path d="" fill="#0B98FA" transform="translate(0,0)"/>
<path d="" fill="#089CFF" transform="translate(0,0)"/>
<path d="" fill="#07A2F7" transform="translate(0,0)"/>
<path d="" fill="#05B1F9" transform="translate(0,0)"/>
<path d="" fill="#06B7FD" transform="translate(0,0)"/>
<path d="" fill="#09AAF3" transform="translate(0,0)"/>
<path d="" fill="#0AB1F1" transform="translate(0,0)"/>
<path d="" fill="#05BCFE" transform="translate(0,0)"/>
<path d="" fill="#01D3FA" transform="translate(0,0)"/>
<path d="" fill="#04D9FF" transform="translate(0,0)"/>
<path d="" fill="#04D8FE" transform="translate(0,0)"/>
<path d="" fill="#02D8FE" transform="translate(0,0)"/>
<path d="" fill="#02D8FC" transform="translate(0,0)"/>
<path d="" fill="#02DDFF" transform="translate(0,0)"/>
<path d="" fill="#06D7FD" transform="translate(0,0)"/>
<path d="" fill="#0ECBE5" transform="translate(0,0)"/>
<path d="" fill="#0DC8E8" transform="translate(0,0)"/>
<path d="" fill="#0BCFEC" transform="translate(0,0)"/>
<path d="" fill="#08CDEB" transform="translate(0,0)"/>
</svg>
